{"title":"3 Idiots Video Jukebox_Bollywood(Hindi).1080p","uid":13507926,"size":580172920,"categoryP":"video","categoryS":"music_videos","magnet":"?xt=urn:btih:f45b332bc2f39432dbfe42de019f6408c88a2191&amp;dn=3+Idiots+Video+Jukebox_Bollywood%28Hindi%29.1080p&amp;tr=udp%3A%2F%2Ftracker.leechers-paradise.org%3A6969&amp;tr=udp%3A%2F%2Fzer0day.ch%3A1337&amp;tr=udp%3A%2F%2Fopen.demonii.com%3A1337&amp;tr=udp%3A%2F%2Ftracker.coppersurfer.tk%3A6969&amp;tr=udp%3A%2F%2Fexodus.desync.com%3A6969","seeders":0,"leechers":0,"uploader":"Dhruv13","files":1,"time":1455256210,"description":"3 Idiots \r\n\r\nVIDEO:-\r\nID                                       : 1\r\nFormat                                   : AVC\r\nFormat/Info                              : Advanced Video Codec\r\nFormat profile                           :   \r\nFormat settings, CABAC                   : Yes\r\nFormat settings, ReFrames                : 3 frames\r\nCodec ID                                 : avc1\r\nCodec ID/Info                            : Advanced Video Coding\r\nDuration                                 : 25mn 14s\r\nBit rate                                 : 2 932 Kbps\r\nWidth                                    : 1 920 pixels\r\nHeight                                   : 1 080 pixels\r\nDisplay aspect ratio                     : 16:9\r\nFrame rate mode                          : Constant\r\nFrame rate                               : 25.000 fps\r\nColor space                              : YUV\r\nChroma subsampling                       : 4:2:0\r\nBit depth                                : 8 bits\r\nScan type                                : Progressive\r\nBits/(Pixel*Frame)                       : 0.057\r\nStream size                              : 529 MiB (96%)\r\n\r\n\r\nAUDIO:-\r\nID                                       : 2\r\nFormat                                   : AAC\r\nFormat/Info                              : Advanced Audio Codec\r\nFormat profile                           : LC\r\nCodec ID                                 : 40\r\nDuration                                 : 25mn 14s\r\nBit rate mode                            : Constant\r\nBit rate                                 : 126 Kbps\r\nChannel(s)                               : 2 channels\r\nChannel positions                        : Front: L R\r\nSampling rate                            : 44.1 KHz\r\nFrame rate                               : 43.066 fps (1024 spf)\r\nCompression mode                         : Lossy\r\nStream size                              : 22.7 MiB (4%)\r\nDefault                                  : Yes\r\nAlternate group                          : 1","torrent":{"xt":"urn:btih:f45b332bc2f39432dbfe42de019f6408c88a2191","amp;dn":"3+Idiots+Video+Jukebox_Bollywood%28Hindi%29.1080p","amp;tr":["udp%3A%2F%2Ftracker.leechers-paradise.org%3A6969","udp%3A%2F%2Fzer0day.ch%3A1337","udp%3A%2F%2Fopen.demonii.com%3A1337","udp%3A%2F%2Ftracker.coppersurfer.tk%3A6969","udp%3A%2F%2Fexodus.desync.com%3A6969"],"infoHash":"f45b332bc2f39432dbfe42de019f6408c88a2191","infoHashBuffer":{"type":"Buffer","data":[244,91,51,43,194,243,148,50,219,254,66,222,1,159,100,8,200,138,33,145]},"announce":[],"urlList":[]}}